<svg version="1.1" xmlns="http://www.w3.org/2000/svg" xmlns:xlink="http://www.w3.org/1999/xlink" width="24px" height="24px" viewBox="0,0,256,256"><g fill="#ffffff" fill-rule="nonzero" stroke="none" stroke-width="1" stroke-linecap="butt" stroke-linejoin="round" stroke-miterlimit="2" stroke-dasharray="" stroke-dashoffset="0" font-family="none" font-weight="none" font-size="none" text-anchor="none" style="mix-blend-mode: normal"><g transform="translate(0,-0.02133) scale(10.66667,10.66667)"><path d="M9.134,19.319l11.587,-11.588c0.171,-0.171 0.279,-0.423 0.279,-0.684c0,-0.229 -0.083,-0.466 -0.28,-0.662l-3.115,-3.104c-0.185,-0.185 -0.429,-0.277 -0.672,-0.277c-0.243,0 -0.486,0.092 -0.672,0.277l-11.606,11.566c-0.569,1.763 -1.555,4.823 -1.626,5.081c-0.02,0.075 -0.029,0.15 -0.029,0.224c0,0.461 0.349,0.848 0.765,0.848c0.511,0 0.991,-0.189 5.369,-1.681zM5.864,15.977l2.137,2.137l-3.168,1.046zM6.819,14.811l10.114,-10.079l2.335,2.327l-10.099,10.101z"></path></g></g></svg>